<mxfile host="Electron" agent="Mozilla/5.0 (Windows NT 10.0; Win64; x64) AppleWebKit/537.36 (KHTML, like Gecko) draw.io/24.7.17 Chrome/128.0.6613.36 Electron/32.0.1 Safari/537.36" version="24.7.17">
  <diagram name="Страница — 1" id="rHHciGTD3H5zhZr75tDO">
    <mxGraphModel dx="1219" dy="713" grid="0" gridSize="10" guides="1" tooltips="1" connect="1" arrows="1" fold="1" page="1" pageScale="1" pageWidth="827" pageHeight="1169" background="#FFFFFF" math="0" shadow="0">
      <root>
        <mxCell id="0" />
        <mxCell id="1" parent="0" />
        <mxCell id="PueukR5PK67V6NeAx5OQ-23" style="edgeStyle=orthogonalEdgeStyle;rounded=0;hachureGap=4;orthogonalLoop=1;jettySize=auto;html=1;entryX=0.5;entryY=0;entryDx=0;entryDy=0;fontFamily=Architects Daughter;fontSource=https%3A%2F%2Ffonts.googleapis.com%2Fcss%3Ffamily%3DArchitects%2BDaughter;strokeColor=#000000;" edge="1" parent="1" source="oQ1ucoxECX1uvSjtPKPf-1" target="oQ1ucoxECX1uvSjtPKPf-3">
          <mxGeometry relative="1" as="geometry" />
        </mxCell>
        <mxCell id="oQ1ucoxECX1uvSjtPKPf-1" value="&lt;h1&gt;&lt;font face=&quot;Helvetica&quot;&gt;API&lt;/font&gt;&lt;/h1&gt;" style="whiteSpace=wrap;html=1;aspect=fixed;hachureGap=4;fontFamily=Architects Daughter;fontSource=https%3A%2F%2Ffonts.googleapis.com%2Fcss%3Ffamily%3DArchitects%2BDaughter;fillColor=none;strokeColor=#666666;fontColor=#000000;" parent="1" vertex="1">
          <mxGeometry x="360" y="130" width="80" height="80" as="geometry" />
        </mxCell>
        <mxCell id="PueukR5PK67V6NeAx5OQ-24" style="edgeStyle=orthogonalEdgeStyle;shape=connector;rounded=0;hachureGap=4;orthogonalLoop=1;jettySize=auto;html=1;exitX=0.5;exitY=0;exitDx=0;exitDy=0;entryX=0.5;entryY=1;entryDx=0;entryDy=0;strokeColor=#000000;align=center;verticalAlign=middle;fontFamily=Architects Daughter;fontSource=https%3A%2F%2Ffonts.googleapis.com%2Fcss%3Ffamily%3DArchitects%2BDaughter;fontSize=11;fontColor=default;labelBackgroundColor=default;endArrow=classic;" edge="1" parent="1" source="oQ1ucoxECX1uvSjtPKPf-3" target="oQ1ucoxECX1uvSjtPKPf-1">
          <mxGeometry relative="1" as="geometry" />
        </mxCell>
        <mxCell id="PueukR5PK67V6NeAx5OQ-25" style="edgeStyle=orthogonalEdgeStyle;shape=connector;rounded=0;hachureGap=4;orthogonalLoop=1;jettySize=auto;html=1;exitX=0.5;exitY=1;exitDx=0;exitDy=0;entryX=0.5;entryY=0;entryDx=0;entryDy=0;strokeColor=#000000;align=center;verticalAlign=middle;fontFamily=Architects Daughter;fontSource=https%3A%2F%2Ffonts.googleapis.com%2Fcss%3Ffamily%3DArchitects%2BDaughter;fontSize=11;fontColor=default;labelBackgroundColor=default;endArrow=classic;" edge="1" parent="1" source="oQ1ucoxECX1uvSjtPKPf-3" target="PueukR5PK67V6NeAx5OQ-12">
          <mxGeometry relative="1" as="geometry" />
        </mxCell>
        <mxCell id="oQ1ucoxECX1uvSjtPKPf-3" value="&lt;h2&gt;&lt;font face=&quot;Helvetica&quot;&gt;MetaInfoService&lt;/font&gt;&lt;/h2&gt;" style="rounded=0;whiteSpace=wrap;html=1;hachureGap=4;fontFamily=Architects Daughter;fontSource=https%3A%2F%2Ffonts.googleapis.com%2Fcss%3Ffamily%3DArchitects%2BDaughter;fillColor=none;strokeColor=#666666;fontColor=#333333;" parent="1" vertex="1">
          <mxGeometry x="310" y="260" width="180" height="60" as="geometry" />
        </mxCell>
        <mxCell id="PueukR5PK67V6NeAx5OQ-28" style="edgeStyle=orthogonalEdgeStyle;shape=connector;rounded=0;hachureGap=4;orthogonalLoop=1;jettySize=auto;html=1;exitX=0.5;exitY=0;exitDx=0;exitDy=0;exitPerimeter=0;entryX=0.5;entryY=1;entryDx=0;entryDy=0;strokeColor=#000000;align=center;verticalAlign=middle;fontFamily=Architects Daughter;fontSource=https%3A%2F%2Ffonts.googleapis.com%2Fcss%3Ffamily%3DArchitects%2BDaughter;fontSize=11;fontColor=default;labelBackgroundColor=default;endArrow=classic;" edge="1" parent="1" source="PueukR5PK67V6NeAx5OQ-11" target="PueukR5PK67V6NeAx5OQ-12">
          <mxGeometry relative="1" as="geometry" />
        </mxCell>
        <mxCell id="PueukR5PK67V6NeAx5OQ-11" value="&lt;h2&gt;&lt;font face=&quot;Helvetica&quot; color=&quot;#000000&quot;&gt;Meta Info&lt;br&gt;Storage&lt;/font&gt;&lt;/h2&gt;" style="shape=cylinder3;whiteSpace=wrap;html=1;boundedLbl=1;backgroundOutline=1;size=15;hachureGap=4;fontFamily=Architects Daughter;fontSource=https%3A%2F%2Ffonts.googleapis.com%2Fcss%3Ffamily%3DArchitects%2BDaughter;fillColor=none;strokeColor=#36393d;" vertex="1" parent="1">
          <mxGeometry x="345" y="490" width="110" height="130" as="geometry" />
        </mxCell>
        <mxCell id="PueukR5PK67V6NeAx5OQ-26" style="edgeStyle=orthogonalEdgeStyle;shape=connector;rounded=0;hachureGap=4;orthogonalLoop=1;jettySize=auto;html=1;exitX=0.5;exitY=0;exitDx=0;exitDy=0;entryX=0.5;entryY=1;entryDx=0;entryDy=0;strokeColor=#000000;align=center;verticalAlign=middle;fontFamily=Architects Daughter;fontSource=https%3A%2F%2Ffonts.googleapis.com%2Fcss%3Ffamily%3DArchitects%2BDaughter;fontSize=11;fontColor=default;labelBackgroundColor=default;endArrow=classic;" edge="1" parent="1" source="PueukR5PK67V6NeAx5OQ-12" target="oQ1ucoxECX1uvSjtPKPf-3">
          <mxGeometry relative="1" as="geometry" />
        </mxCell>
        <mxCell id="PueukR5PK67V6NeAx5OQ-12" value="&lt;h3&gt;&lt;font face=&quot;Helvetica&quot; color=&quot;#000000&quot;&gt;Repository&lt;/font&gt;&lt;/h3&gt;" style="rounded=0;whiteSpace=wrap;html=1;hachureGap=4;fontFamily=Architects Daughter;fontSource=https%3A%2F%2Ffonts.googleapis.com%2Fcss%3Ffamily%3DArchitects%2BDaughter;fillColor=none;strokeColor=#36393d;" vertex="1" parent="1">
          <mxGeometry x="340" y="380" width="120" height="60" as="geometry" />
        </mxCell>
        <mxCell id="PueukR5PK67V6NeAx5OQ-27" style="edgeStyle=orthogonalEdgeStyle;shape=connector;rounded=0;hachureGap=4;orthogonalLoop=1;jettySize=auto;html=1;exitX=0.5;exitY=1;exitDx=0;exitDy=0;entryX=0.5;entryY=0;entryDx=0;entryDy=0;entryPerimeter=0;strokeColor=#000000;align=center;verticalAlign=middle;fontFamily=Architects Daughter;fontSource=https%3A%2F%2Ffonts.googleapis.com%2Fcss%3Ffamily%3DArchitects%2BDaughter;fontSize=11;fontColor=default;labelBackgroundColor=default;endArrow=classic;" edge="1" parent="1" source="PueukR5PK67V6NeAx5OQ-12" target="PueukR5PK67V6NeAx5OQ-11">
          <mxGeometry relative="1" as="geometry" />
        </mxCell>
      </root>
    </mxGraphModel>
  </diagram>
</mxfile>
